<svg xmlns="http://www.w3.org/2000/svg" xmlns:xlink="http://www.w3.org/1999/xlink" width="512" height="512" viewBox="0 0 512 512"><defs><path id="5xz0a" d="M65 81V17c0-8.844 7.156-16 16-16 8.844 0 16 7.156 16 16v64c0 8.844-7.156 16-16 16-8.844 0-16-7.156-16-16zm256 0V17c0-8.844 7.156-16 16-16 8.844 0 16 7.156 16 16v64c0 8.844-7.156 16-16 16-8.844 0-16-7.156-16-16zm192 304c0 70.688-57.313 128-128 128-70.688 0-128-57.313-128-128 0-70.688 57.313-128 128-128 70.688 0 128 57.313 128 128zm-32 0c0-52.938-43.063-96-96-96-52.938 0-96 43.063-96 96 0 52.938 43.063 96 96 96 52.938 0 96-43.063 96-96zM129 257H65v-64h64zm-64 32h64v64H65zm96-96h64v64h-64zm0 96h64v64h-64zM35.672 385H225v32H35.672C16.516 417 1 401.187 1 381.812V100.188C1 80.75 16.516 65 35.672 65H49v16c0 17.625 14.344 32 32 32s32-14.375 32-32V65h192v16c0 17.625 14.344 32 32 32s32-14.375 32-32V65h13.344C401.5 65 417 80.75 417 100.188V225h-32v-64H33v220.813C33 383.5 34.219 385 35.672 385zM257 257v-64h64v64zm192 144c0 8.844-7.156 16-16 16h-64c-8.844 0-16-7.156-16-16v-64c0-8.844 7.156-16 16-16 8.844 0 16 7.156 16 16v48h48c8.844 0 16 7.156 16 16z"/></defs><g><g transform="translate(-1 -1)"><use xlink:href="#5xz0a"/></g></g></svg>