<svg xmlns="http://www.w3.org/2000/svg" xmlns:xlink="http://www.w3.org/1999/xlink" width="40" height="48" viewBox="0 0 40 48"><defs><path id="ans5a" d="M9.691 12.033h20.607v3H9.69zm0 7.19h20.607v3H9.69zM40.001 1v45a2 2 0 0 1-1.999 2l-29.61-3.778.03-.022c-4.744-.617-8.423-4.677-8.423-9.588 0-.1.018-.194.03-.29V1c0-.553.446-1 .999-1H39a1 1 0 0 1 1 1zm-4.998 4H5.025v29.475c.009.088 0 .217 0 .308 0 2.58 2.067 4.507 4.645 4.507 2.579 0 4.664-2.099 4.664-4.678 0-.058-.004-.112 0-.17v-3.407c0-.553.378-.76.843-.464l19.826 11.634z"/></defs><g><g><use xlink:href="#ans5a"/></g></g></svg>