<svg xmlns="http://www.w3.org/2000/svg" xmlns:xlink="http://www.w3.org/1999/xlink" width="597" height="613" viewBox="0 0 597 613"><defs><path id="c9tca" d="M251.616 322.68c0 16.944-13.723 30.68-30.653 30.68s-30.652-13.736-30.652-30.68c0-16.945 13.724-30.681 30.652-30.681 16.93 0 30.653 13.736 30.653 30.68zm155.074 0c0 16.944-13.723 30.68-30.652 30.68-16.93 0-30.654-13.736-30.654-30.68 0-16.945 13.725-30.681 30.654-30.681 16.929 0 30.652 13.736 30.652 30.68zm100.283 94.21v-3.495c-3.512 10.206-7.731 19.9-12.27 29.324.842 5.778 2.4 13.841 5.018 23.059 12.598 19.502 48.149 44.348 72.522 50.748-13.142 5.587-28.972 7.887-44.37 5.53 14.105 17.763 33.982 33.893 62.027 43.489-65.555 59.138-173.567 60.454-249.069 14.526-14.63 4.307-28.93 6.563-42.331 6.563-13.403 0-27.702-2.256-42.332-6.563C180.666 625.999 72.654 624.683 7.1 565.545c28.606-9.789 48.67-26.385 62.822-44.57-12.517.48-24.939-1.8-35.582-6.325 17.859-4.69 41.707-19.295 58.162-34.438 5.758-15.235 8.537-28.856 9.795-37.494-4.539-9.424-8.758-19.117-12.27-29.324v3.496h-37.07C23.71 416.89 0 393.158 0 363.884v-58.307c0-20.145 11.228-37.663 27.763-46.631.555-82.782 24.66-147.435 71.75-192.132C146.22 22.482 213.17.001 298.5.001c85.33 0 152.28 22.48 198.988 66.814 47.09 44.696 71.194 109.349 71.75 192.132C585.77 267.915 597 285.433 597 305.578v58.307c0 29.274-23.71 53.006-52.958 53.006zm-22.058-94.015c0-13.64-.696-26.454-1.727-38.872-23.893-21.88-67.605-38.38-122.72-44.2 8.744 7.847 16.252 18.31 20.268 33.25-32.047-23.448-99.216-30.71-121.526-55.833l.022-.002c-35.513-23.529-44.831-57.23-45.131-43.281-1.437 66.895-48.808 119.045-101.41 126.403-.334 7.356-.607 14.784-.607 22.534 0 28.275 4.613 54.044 12.457 77.268 29.546 35.673 78.343 45.747 121.532 48.419 8.018-12.769 26.007-21.682 46.957-21.682 28.403 0 51.428 16.36 51.428 36.54s-23.025 36.539-51.428 36.539c-21.848 0-40.466-9.696-47.919-23.348-30.185-1.757-63.367-6.906-92.941-20.884 41.592 61.358 106.065 93.804 146.33 93.804 63.27 0 186.416-80 186.416-226.655zm32.065-70.303h20.376C533.985 108.116 451.605 31.805 298.5 31.805c-153.104 0-235.483 76.31-238.854 220.767h20.375c7.45-48.688 23.196-88.732 47.102-119.52 38.096-49.062 95.755-73.94 171.377-73.94 75.623 0 133.282 24.878 171.38 73.94 23.905 30.788 39.65 70.832 47.1 119.52z"/></defs><g><g><use xlink:href="#c9tca"/></g></g></svg>