<svg xmlns="http://www.w3.org/2000/svg" xmlns:xlink="http://www.w3.org/1999/xlink" width="381" height="381" viewBox="0 0 381 381"><defs><path id="v5tna" d="M380.5 190.5c0 104.768-85.233 190-190 190-104.768 0-190-85.234-190-190S85.732.5 190.5.5c104.767 0 190 85.233 190 190zm-65.428 83.469l-17.188-9.923c-4.783-2.76-6.421-8.877-3.66-13.66a9.998 9.998 0 0 1 13.66-3.66l17.212 9.937c9.183-18.606 14.62-39.378 15.319-61.327l-16.333.05h-.017a5.28 5.28 0 0 1-2.623-.695 5.316 5.316 0 0 1-2.668-4.582 5.257 5.257 0 0 1 1.539-3.747 5.255 5.255 0 0 1 3.736-1.561l16.33-.05c-.818-21.61-6.228-42.062-15.284-60.41l-17.212 9.937a9.998 9.998 0 0 1-13.66-3.66c-2.761-4.783-1.123-10.9 3.66-13.66l17.188-9.923a151.19 151.19 0 0 0-45.449-43.909l-8.104 14.135a5.31 5.31 0 0 1-4.6 2.66c-.928 0-1.81-.236-2.624-.702a5.299 5.299 0 0 1-1.959-7.224l8.111-14.149A148.883 148.883 0 0 0 200.5 40.845v19.889c0 5.523-4.477 10-10 10-5.522 0-10-4.477-10-10v-19.89a148.916 148.916 0 0 0-60.76 17.43l8.198 14.103a5.257 5.257 0 0 1 .541 4.013 5.254 5.254 0 0 1-2.458 3.223 5.343 5.343 0 0 1-5.299.013 5.215 5.215 0 0 1-1.935-1.93l-8.188-14.083a151.194 151.194 0 0 0-44.671 43.422l17.188 9.923c4.782 2.76 6.421 8.877 3.659 13.66a9.996 9.996 0 0 1-13.66 3.66l-17.211-9.937c-9.183 18.607-14.62 39.378-15.319 61.327l16.348-.05a5.303 5.303 0 0 1 5.293 5.277 5.257 5.257 0 0 1-1.538 3.748 5.256 5.256 0 0 1-3.737 1.56l-16.33.05c.818 21.61 6.228 42.062 15.284 60.41l17.212-9.936c4.782-2.762 10.898-1.124 13.659 3.659 2.762 4.783 1.123 10.9-3.66 13.66l-17.187 9.923a151.211 151.211 0 0 0 45.447 43.908l8.102-14.133a5.32 5.32 0 0 1 4.603-2.663c.927 0 1.81.237 2.624.704a5.254 5.254 0 0 1 2.475 3.205 5.259 5.259 0 0 1-.517 4.018l-8.111 14.15a148.887 148.887 0 0 0 59.949 17.001v-19.89c0-5.522 4.478-10 10-10s10 4.478 10 10v19.891a148.908 148.908 0 0 0 60.76-17.43l-8.2-14.1a5.273 5.273 0 0 1-.541-4.017 5.258 5.258 0 0 1 2.458-3.22 5.208 5.208 0 0 1 2.648-.72 5.322 5.322 0 0 1 4.587 2.636l8.188 14.084a151.255 151.255 0 0 0 44.672-43.424zm-33.591-132.805c3.364 6.066 1.176 13.712-4.89 17.077l-65.443 36.31c-1.89 9.685-10.412 16.998-20.65 16.998-10.238 0-18.759-7.313-20.65-16.997l-65.443-36.31c-6.067-3.367-8.255-11.013-4.89-17.078 3.366-6.065 11.013-8.255 17.077-4.89l64.14 35.589a20.935 20.935 0 0 1 9.767-2.412c3.528 0 6.847.88 9.767 2.412l64.14-35.588c6.067-3.366 13.712-1.177 17.074 4.89z"/></defs><g><g><use xlink:href="#v5tna"/></g></g></svg>